<svg width="70" height="70" viewBox="0 0 70 70" fill="none" xmlns="http://www.w3.org/2000/svg">
<path fill-rule="evenodd" clip-rule="evenodd" d="M35.0752 5.83337C19.0073 5.83337 5.98438 18.8563 5.98438 34.9242C5.98438 47.775 14.3173 58.6805 25.879 62.5305C27.3344 62.793 27.8594 61.8975 27.8594 61.1275C27.8594 60.4363 27.836 58.6046 27.8273 56.1809C19.7335 57.9367 18.0244 52.2784 18.0244 52.2784C16.706 48.9184 14.7956 48.023 14.7956 48.023C12.156 46.2175 14.9969 46.2584 14.9969 46.2584C17.9194 46.4625 19.4506 49.2567 19.4506 49.2567C22.0465 53.7017 26.264 52.4184 27.9148 51.6746C28.1802 49.7934 28.9385 48.51 29.7669 47.7838C23.3094 47.0517 16.5194 44.555 16.5194 33.4046C16.5194 30.2342 17.654 27.6325 19.506 25.6025C19.2115 24.8646 18.2052 21.9042 19.7948 17.9025C19.7948 17.9025 22.236 17.118 27.7923 20.8805C30.1653 20.2349 32.6131 19.9054 35.0723 19.9005C37.5316 19.9044 39.9795 20.234 42.3523 20.8805C47.9115 17.115 50.3498 17.9025 50.3498 17.9025C51.9394 21.9042 50.9419 24.8646 50.6385 25.6025C52.5052 27.6325 53.6252 30.2313 53.6252 33.4046C53.6252 44.5842 46.8294 47.04 40.3485 47.7605C41.384 48.6588 42.3173 50.4321 42.3173 53.1446C42.3173 57.0355 42.2823 60.1738 42.2823 61.1275C42.2823 61.9063 42.8015 62.8105 44.286 62.5246C55.8419 58.6688 64.166 47.7721 64.166 34.9242C64.166 18.8563 51.1431 5.83337 35.0752 5.83337Z" fill="#CCCCCC"/>
</svg>
