<svg width="54" height="54" viewBox="0 0 54 54" fill="none" xmlns="http://www.w3.org/2000/svg">
<path fill-rule="evenodd" clip-rule="evenodd" d="M26.6574 4.43335C14.4458 4.43335 4.54834 14.3308 4.54834 26.5424C4.54834 36.309 10.8814 44.5971 19.6682 47.5231C20.7743 47.7226 21.1733 47.0421 21.1733 46.4569C21.1733 45.9316 21.1556 44.5395 21.149 42.6974C14.9977 44.0319 13.6987 39.7315 13.6987 39.7315C12.6968 37.1779 11.2449 36.4974 11.2449 36.4974C9.23881 35.1253 11.3978 35.1563 11.3978 35.1563C13.6189 35.3115 14.7827 37.4351 14.7827 37.4351C16.7555 40.8133 19.9608 39.8379 21.2155 39.2727C21.4172 37.8429 21.9935 36.8676 22.623 36.3157C17.7153 35.7593 12.5549 33.8618 12.5549 25.3875C12.5549 22.978 13.4172 21.0007 14.8248 19.4579C14.6009 18.8971 13.8362 16.6472 15.0443 13.6059C15.0443 13.6059 16.8996 13.0096 21.1224 15.8691C22.9258 15.3785 24.7862 15.1281 26.6552 15.1243C28.5242 15.1274 30.3846 15.3778 32.188 15.8691C36.4129 13.0074 38.2661 13.6059 38.2661 13.6059C39.4741 16.6472 38.716 18.8971 38.4855 19.4579C39.9042 21.0007 40.7554 22.9758 40.7554 25.3875C40.7554 33.884 35.5905 35.7504 30.6651 36.2979C31.452 36.9807 32.1614 38.3284 32.1614 40.3899C32.1614 43.3469 32.1348 45.7321 32.1348 46.4569C32.1348 47.0488 32.5293 47.7359 33.6576 47.5187C42.44 44.5883 48.7664 36.3068 48.7664 26.5424C48.7664 14.3308 38.869 4.43335 26.6574 4.43335Z" fill="#CCCCCC"/>
</svg>
