<svg width="70" height="70" viewBox="0 0 70 70" fill="none" xmlns="http://www.w3.org/2000/svg">
<path d="M61.0954 24.2228C61.066 22.0138 60.6524 19.8267 59.8733 17.7595C59.1976 16.0157 58.1657 14.4321 56.8434 13.1098C55.521 11.7875 53.9374 10.7555 52.1937 10.0799C50.153 9.31383 47.9971 8.89962 45.8179 8.85487C43.012 8.72946 42.1225 8.69446 35 8.69446C27.8775 8.69446 26.9645 8.69446 24.1791 8.85487C22.0008 8.89995 19.846 9.31416 17.8062 10.0799C16.0622 10.7551 14.4784 11.7868 13.156 13.1092C11.8336 14.4316 10.8018 16.0155 10.1266 17.7595C9.35905 19.7986 8.94574 21.9539 8.90454 24.1324C8.77913 26.9411 8.74121 27.8307 8.74121 34.9532C8.74121 42.0757 8.74121 42.9857 8.90454 45.774C8.94829 47.9557 9.35954 50.1082 10.1266 52.1528C10.8029 53.8963 11.8355 55.4795 13.1583 56.8013C14.4811 58.1231 16.0651 59.1545 17.8091 59.8295C19.8433 60.6263 21.9985 61.0701 24.182 61.142C26.9908 61.2674 27.8804 61.3053 35.0029 61.3053C42.1254 61.3053 43.0383 61.3053 45.8237 61.142C48.0029 61.099 50.1589 60.6858 52.1995 59.9199C53.9428 59.2434 55.526 58.2112 56.8482 56.889C58.1705 55.5668 59.2027 53.9836 59.8791 52.2403C60.6462 50.1986 61.0575 48.0461 61.1012 45.8615C61.2266 43.0557 61.2645 42.1661 61.2645 35.0407C61.2587 27.9182 61.2587 27.014 61.0954 24.2228V24.2228ZM34.9825 48.4224C27.5333 48.4224 21.4987 42.3878 21.4987 34.9386C21.4987 27.4895 27.5333 21.4549 34.9825 21.4549C38.5586 21.4549 41.9882 22.8755 44.5169 25.4042C47.0456 27.9329 48.4662 31.3625 48.4662 34.9386C48.4662 38.5147 47.0456 41.9444 44.5169 44.4731C41.9882 47.0018 38.5586 48.4224 34.9825 48.4224V48.4224ZM49.0029 24.1003C48.5899 24.1007 48.1808 24.0196 47.7992 23.8617C47.4176 23.7039 47.0708 23.4723 46.7788 23.1802C46.4867 22.8882 46.2551 22.5414 46.0973 22.1598C45.9394 21.7782 45.8583 21.3691 45.8587 20.9561C45.8587 20.5434 45.94 20.1348 46.0979 19.7535C46.2559 19.3722 46.4874 19.0257 46.7792 18.7339C47.071 18.4421 47.4175 18.2106 47.7988 18.0526C48.18 17.8947 48.5887 17.8134 49.0014 17.8134C49.4141 17.8134 49.8228 17.8947 50.2041 18.0526C50.5854 18.2106 50.9318 18.4421 51.2237 18.7339C51.5155 19.0257 51.747 19.3722 51.9049 19.7535C52.0628 20.1348 52.1441 20.5434 52.1441 20.9561C52.1441 22.6945 50.7383 24.1003 49.0029 24.1003Z" fill="#CCCCCC"/>
<path d="M34.9829 43.6974C39.8202 43.6974 43.7416 39.776 43.7416 34.9387C43.7416 30.1014 39.8202 26.1799 34.9829 26.1799C30.1455 26.1799 26.2241 30.1014 26.2241 34.9387C26.2241 39.776 30.1455 43.6974 34.9829 43.6974Z" fill="#CCCCCC"/>
</svg>
