<svg width="184" height="75" viewBox="0 0 184 75" fill="none" xmlns="http://www.w3.org/2000/svg">
<path d="M10.601 22.4562H16.1136L26.3905 53.1462H20.7992L18.2005 45.4953H8.43537L5.87597 53.1462H0.284668L10.601 22.4562ZM17.2161 41.3025L13.3573 28.6374L9.341 41.3025H17.2161Z" fill="white"/>
<path d="M32.3707 22.4562L39.3007 33.7812L46.1914 22.4562H52.0977L42.4114 38.0173L51.7827 53.1462H45.8764L39.3007 42.2534L32.6857 53.1462H26.74L36.1113 38.0173L26.425 22.4562H32.3707Z" fill="white"/>
<path d="M54.9126 53.1462V22.4562H60.3464V53.1462H54.9126Z" fill="#EC7979"/>
<path d="M87.0875 27.6865H78.1493V53.1462H72.7549V27.6865H63.8167V22.4562H87.0875V27.6865Z" fill="#EC7979"/>
</svg>
