<svg width="70" height="70" viewBox="0 0 70 70" fill="none" xmlns="http://www.w3.org/2000/svg">
<path d="M26.3668 62.825C29.1668 63.6709 31.996 64.1667 35.0002 64.1667C42.7356 64.1667 50.1543 61.0938 55.6241 55.624C61.0939 50.1542 64.1668 42.7355 64.1668 35C64.1668 31.1698 63.4124 27.3771 61.9467 23.8384C60.4809 20.2998 58.3325 17.0845 55.6241 14.3761C52.9157 11.6677 49.7004 9.51932 46.1618 8.05355C42.6231 6.58779 38.8304 5.83337 35.0002 5.83337C31.1699 5.83337 27.3772 6.58779 23.8386 8.05355C20.2999 9.51932 17.0846 11.6677 14.3762 14.3761C8.9064 19.8459 5.8335 27.2646 5.8335 35C5.8335 47.3959 13.621 58.0417 24.6168 62.2417C24.3543 59.9667 24.0918 56.2042 24.6168 53.6084L27.971 39.2C27.971 39.2 27.1252 37.5084 27.1252 34.825C27.1252 30.8 29.6335 27.7959 32.4918 27.7959C35.0002 27.7959 36.1668 29.6334 36.1668 31.9959C36.1668 34.5042 34.5043 38.0917 33.6585 41.5334C33.1627 44.3917 35.1752 46.9 38.0918 46.9C43.2835 46.9 47.3085 41.3584 47.3085 33.5417C47.3085 26.5417 42.2918 21.7584 35.0877 21.7584C26.8627 21.7584 22.021 27.8834 22.021 34.3292C22.021 36.8375 22.8377 39.375 24.1793 41.0375C24.4418 41.2125 24.4418 41.4459 24.3543 41.8834L23.5085 45.0625C23.5085 45.5584 23.1877 45.7334 22.6918 45.3834C18.9585 43.75 16.8002 38.4417 16.8002 34.1542C16.8002 24.9375 23.3335 16.5667 35.9335 16.5667C45.9668 16.5667 53.7835 23.7709 53.7835 33.3375C53.7835 43.3709 47.571 51.4209 38.6752 51.4209C35.846 51.4209 33.0752 49.9042 32.0835 48.125L30.1293 55.0375C29.4585 57.5459 27.621 60.9 26.3668 62.9125V62.825V62.825Z" fill="#CCCCCC"/>
</svg>
