<svg width="54" height="54" viewBox="0 0 54 54" fill="none" xmlns="http://www.w3.org/2000/svg">
<path d="M20.0384 47.747C22.1664 48.3899 24.3166 48.7667 26.5998 48.7667C32.4787 48.7667 38.1169 46.4313 42.274 42.2742C46.431 38.1172 48.7664 32.479 48.7664 26.6C48.7664 23.689 48.1931 20.8066 47.0791 18.1172C45.9651 15.4278 44.3323 12.9842 42.274 10.9258C40.2156 8.86745 37.772 7.23467 35.0826 6.12069C32.3932 5.00671 29.5107 4.43335 26.5998 4.43335C23.6888 4.43335 20.8063 5.00671 18.117 6.12069C15.4276 7.23467 12.9839 8.86745 10.9256 10.9258C6.76852 15.0829 4.43311 20.7211 4.43311 26.6C4.43311 36.0209 10.3516 44.1117 18.7084 47.3037C18.5089 45.5747 18.3094 42.7152 18.7084 40.7423L21.2576 29.792C21.2576 29.792 20.6148 28.5063 20.6148 26.467C20.6148 23.408 22.5211 21.1248 24.6934 21.1248C26.5998 21.1248 27.4864 22.5214 27.4864 24.3169C27.4864 26.2232 26.2229 28.9497 25.5801 31.5653C25.2033 33.7377 26.7328 35.644 28.9494 35.644C32.8951 35.644 35.9541 31.4324 35.9541 25.4917C35.9541 20.1717 32.1414 16.5363 26.6663 16.5363C20.4153 16.5363 16.7356 21.1914 16.7356 26.0902C16.7356 27.9965 17.3563 29.925 18.3759 31.1885C18.5754 31.3215 18.5754 31.4988 18.5089 31.8313L17.8661 34.2475C17.8661 34.6243 17.6223 34.7574 17.2454 34.4914C14.4081 33.25 12.7678 29.2157 12.7678 25.9572C12.7678 18.9525 17.7331 12.5907 27.3091 12.5907C34.9344 12.5907 40.8751 18.0659 40.8751 25.3365C40.8751 32.9619 36.1536 39.0798 29.3928 39.0798C27.2426 39.0798 25.1368 37.9272 24.3831 36.575L22.8979 41.8285C22.3881 43.7349 20.9916 46.284 20.0384 47.8135V47.747V47.747Z" fill="#CCCCCC"/>
</svg>
