<svg width="54" height="54" viewBox="0 0 54 54" fill="none" xmlns="http://www.w3.org/2000/svg">
<path d="M13.699 44.3334C16.3679 44.3334 18.5314 42.1699 18.5314 39.501C18.5314 36.8322 16.3679 34.6687 13.699 34.6687C11.0302 34.6687 8.8667 36.8322 8.8667 39.501C8.8667 42.1699 11.0302 44.3334 13.699 44.3334Z" fill="#CCCCCC"/>
<path d="M8.8667 9.84204V16.1152C24.4499 16.1152 37.0849 28.7502 37.0849 44.3334H43.358C43.358 25.2922 27.9079 9.84204 8.8667 9.84204V9.84204ZM8.8667 22.3884V28.6615C17.5117 28.6615 24.5385 35.6884 24.5385 44.3334H30.8117C30.8117 32.2082 20.9919 22.3884 8.8667 22.3884V22.3884Z" fill="#CCCCCC"/>
</svg>
