<svg width="70" height="70" viewBox="0 0 70 70" fill="none" xmlns="http://www.w3.org/2000/svg">
<path d="M18.0248 58.3334C21.5364 58.3334 24.3832 55.4866 24.3832 51.975C24.3832 48.4634 21.5364 45.6167 18.0248 45.6167C14.5132 45.6167 11.6665 48.4634 11.6665 51.975C11.6665 55.4866 14.5132 58.3334 18.0248 58.3334Z" fill="#CCCCCC"/>
<path d="M11.6665 12.9498V21.204C32.1707 21.204 48.7957 37.829 48.7957 58.3332H57.0498C57.0498 33.279 36.7207 12.9498 11.6665 12.9498V12.9498ZM11.6665 29.4582V37.7123C23.0415 37.7123 32.2873 46.9582 32.2873 58.3332H40.5415C40.5415 42.379 27.6207 29.4582 11.6665 29.4582V29.4582Z" fill="#CCCCCC"/>
</svg>
