<svg width="70" height="70" viewBox="0 0 70 70" fill="none" xmlns="http://www.w3.org/2000/svg">
<path d="M57.2631 23.3247C57.301 23.8351 57.301 24.3426 57.301 24.8501C57.301 40.3813 45.4797 58.278 23.876 58.278C17.2202 58.278 11.0368 56.3501 5.8335 53.0018C6.7785 53.1097 7.6885 53.1476 8.67141 53.1476C13.9593 53.1604 19.0975 51.3922 23.2577 48.128C20.806 48.0836 18.4293 47.2748 16.4596 45.8143C14.4899 44.3539 13.0254 42.3148 12.2706 39.9818C12.9968 40.0897 13.726 40.1626 14.4902 40.1626C15.5431 40.1626 16.6018 40.0168 17.5847 39.763C14.924 39.2258 12.5315 37.7836 10.8141 35.6817C9.09656 33.5797 8.1601 30.9478 8.16391 28.2334V28.0876C9.73016 28.9597 11.5472 29.5051 13.4722 29.578C11.8596 28.5064 10.5373 27.0522 9.62324 25.3453C8.70921 23.6384 8.23191 21.7317 8.23391 19.7955C8.23391 17.6138 8.81433 15.613 9.83225 13.8688C12.7843 17.5001 16.4662 20.4709 20.6395 22.5887C24.8127 24.7065 29.3843 25.924 34.0581 26.1626C33.8772 25.2876 33.7664 24.3805 33.7664 23.4705C33.7656 21.9275 34.069 20.3994 34.6591 18.9737C35.2493 17.548 36.1146 16.2526 37.2057 15.1615C38.2968 14.0704 39.5922 13.205 41.0179 12.6149C42.4437 12.0248 43.9717 11.7214 45.5147 11.7222C48.8981 11.7222 51.9518 13.1397 54.0985 15.4322C56.7287 14.9236 59.2509 13.9634 61.5535 12.5943C60.6768 15.3091 58.8403 17.6112 56.3881 19.0693C58.7208 18.8032 61.0006 18.1897 63.1518 17.2493C61.5451 19.5916 59.5542 21.6457 57.2631 23.3247V23.3247Z" fill="#CCCCCC"/>
</svg>
