<svg width="54" height="54" viewBox="0 0 54 54" fill="none" xmlns="http://www.w3.org/2000/svg">
<path d="M43.5196 17.7268C43.5484 18.1148 43.5484 18.5005 43.5484 18.8862C43.5484 30.6899 34.5643 44.2914 18.1454 44.2914C13.087 44.2914 8.38764 42.8262 4.43311 40.2814C5.15131 40.3634 5.84291 40.3923 6.58992 40.3923C10.6087 40.402 14.5137 39.0581 17.6755 36.5774C15.8122 36.5436 14.0059 35.9289 12.5089 34.819C11.012 33.709 9.89893 32.1593 9.32529 30.3862C9.87724 30.4682 10.4314 30.5237 11.0122 30.5237C11.8124 30.5237 12.617 30.4128 13.3641 30.22C11.3419 29.8117 9.52362 28.7156 8.21833 27.1182C6.91303 25.5207 6.20132 23.5204 6.20422 21.4575V21.3467C7.39457 22.0094 8.77555 22.424 10.2386 22.4794C9.01294 21.6649 8.00797 20.5598 7.31331 19.2625C6.61865 17.9653 6.2559 16.5162 6.25742 15.0447C6.25742 13.3866 6.69854 11.866 7.47216 10.5404C9.71573 13.3002 12.514 15.558 15.6856 17.1675C18.8573 18.777 22.3317 19.7024 25.8838 19.8837C25.7464 19.2187 25.6621 18.5293 25.6621 17.8377C25.6615 16.665 25.8921 15.5036 26.3406 14.4201C26.7891 13.3366 27.4468 12.352 28.276 11.5228C29.1052 10.6936 30.0897 10.0359 31.1733 9.58741C32.2568 9.13891 33.4181 8.90835 34.5909 8.90894C37.1622 8.90894 39.483 9.98624 41.1145 11.7285C43.1134 11.342 45.0303 10.6123 46.7803 9.57172C46.114 11.635 44.7183 13.3846 42.8546 14.4927C44.6274 14.2905 46.3601 13.8243 47.995 13.1095C46.7739 14.8897 45.2608 16.4508 43.5196 17.7268V17.7268Z" fill="#CCCCCC"/>
</svg>
